<svg width="12" height="12" viewBox="0 0 12 12" fill="none" xmlns="http://www.w3.org/2000/svg">
<path d="M10.3636 0H1.63636C1.20237 0 0.786158 0.172402 0.47928 0.47928C0.172402 0.786158 0 1.20237 0 1.63636V10.3636C0 10.7976 0.172402 11.2138 0.47928 11.5207C0.786158 11.8276 1.20237 12 1.63636 12H10.3636C10.7976 12 11.2138 11.8276 11.5207 11.5207C11.8276 11.2138 12 10.7976 12 10.3636V1.63636C12 1.20237 11.8276 0.786158 11.5207 0.47928C11.2138 0.172402 10.7976 0 10.3636 0ZM10.9091 10.3636C10.9091 10.5083 10.8516 10.647 10.7493 10.7493C10.647 10.8516 10.5083 10.9091 10.3636 10.9091H1.63636C1.4917 10.9091 1.35296 10.8516 1.25067 10.7493C1.14838 10.647 1.09091 10.5083 1.09091 10.3636V1.63636C1.09091 1.4917 1.14838 1.35296 1.25067 1.25067C1.35296 1.14838 1.4917 1.09091 1.63636 1.09091H10.3636C10.5083 1.09091 10.647 1.14838 10.7493 1.25067C10.8516 1.35296 10.9091 1.4917 10.9091 1.63636V10.3636ZM9.27273 2.72727V6.54545C9.27273 6.69012 9.21526 6.82886 9.11297 6.93115C9.01068 7.03344 8.87194 7.09091 8.72727 7.09091C8.58261 7.09091 8.44387 7.03344 8.34158 6.93115C8.23929 6.82886 8.18182 6.69012 8.18182 6.54545V2.72727C8.18182 2.58261 8.23929 2.44387 8.34158 2.34158C8.44387 2.23929 8.58261 2.18182 8.72727 2.18182C8.87194 2.18182 9.01068 2.23929 9.11297 2.34158C9.21526 2.44387 9.27273 2.58261 9.27273 2.72727ZM6.54545 2.72727V9.27273C6.54545 9.41739 6.48799 9.55613 6.38569 9.65842C6.2834 9.76072 6.14466 9.81818 6 9.81818C5.85534 9.81818 5.7166 9.76072 5.61431 9.65842C5.51201 9.55613 5.45455 9.41739 5.45455 9.27273V2.72727C5.45455 2.58261 5.51201 2.44387 5.61431 2.34158C5.7166 2.23929 5.85534 2.18182 6 2.18182C6.14466 2.18182 6.2834 2.23929 6.38569 2.34158C6.48799 2.44387 6.54545 2.58261 6.54545 2.72727ZM3.81818 2.72727V4.90909C3.81818 5.05375 3.76071 5.19249 3.65842 5.29479C3.55613 5.39708 3.41739 5.45455 3.27273 5.45455C3.12806 5.45455 2.98933 5.39708 2.88703 5.29479C2.78474 5.19249 2.72727 5.05375 2.72727 4.90909V2.72727C2.72727 2.58261 2.78474 2.44387 2.88703 2.34158C2.98933 2.23929 3.12806 2.18182 3.27273 2.18182C3.41739 2.18182 3.55613 2.23929 3.65842 2.34158C3.76071 2.44387 3.81818 2.58261 3.81818 2.72727Z" fill="black"/>
</svg>
