<svg width="12" height="12" viewBox="0 0 12 12" fill="none" xmlns="http://www.w3.org/2000/svg">
<path d="M10.4116 3.59287H1.58984C1.35778 3.59287 1.13522 3.50068 0.971125 3.33659C0.807031 3.17249 0.714844 2.94993 0.714844 2.71787V1.58887C0.714844 1.3568 0.807031 1.13424 0.971125 0.970149C1.13522 0.806054 1.35778 0.713867 1.58984 0.713867H10.4116C10.6437 0.713867 10.8662 0.806054 11.0303 0.970149C11.1944 1.13424 11.2866 1.3568 11.2866 1.58887V2.71787C11.2863 2.94983 11.194 3.1722 11.0299 3.33622C10.8659 3.50024 10.6436 3.59254 10.4116 3.59287ZM1.58984 1.46387C1.55669 1.46387 1.5249 1.47704 1.50146 1.50048C1.47801 1.52392 1.46484 1.55572 1.46484 1.58887V2.71787C1.46484 2.75102 1.47801 2.78281 1.50146 2.80626C1.5249 2.8297 1.55669 2.84287 1.58984 2.84287H10.4116C10.4447 2.84287 10.4765 2.8297 10.5 2.80626C10.5234 2.78281 10.5366 2.75102 10.5366 2.71787V1.58887C10.5366 1.55572 10.5234 1.52392 10.5 1.50048C10.4765 1.47704 10.4447 1.46387 10.4116 1.46387H1.58984ZM10.4116 11.2854H1.58984C1.35778 11.2854 1.13522 11.1932 0.971125 11.0291C0.807031 10.865 0.714844 10.6424 0.714844 10.4104V9.28137C0.714844 9.0493 0.807031 8.82674 0.971125 8.66265C1.13522 8.49855 1.35778 8.40637 1.58984 8.40637H10.4116C10.6436 8.4067 10.8659 8.49899 11.0299 8.66301C11.194 8.82704 11.2863 9.0494 11.2866 9.28137V10.4104C11.2866 10.6424 11.1944 10.865 11.0303 11.0291C10.8662 11.1932 10.6437 11.2854 10.4116 11.2854ZM1.58984 9.15637C1.55669 9.15637 1.5249 9.16954 1.50146 9.19298C1.47801 9.21642 1.46484 9.24821 1.46484 9.28137V10.4104C1.46484 10.4435 1.47801 10.4753 1.50146 10.4988C1.5249 10.5222 1.55669 10.5354 1.58984 10.5354H10.4116C10.4447 10.5354 10.4765 10.5222 10.5 10.4988C10.5234 10.4753 10.5366 10.4435 10.5366 10.4104V9.28137C10.5366 9.24821 10.5234 9.21642 10.5 9.19298C10.4765 9.16954 10.4447 9.15637 10.4116 9.15637H1.58984ZM10.4116 7.43912H1.58984C1.35778 7.43912 1.13522 7.34693 0.971125 7.18284C0.807031 7.01874 0.714844 6.79618 0.714844 6.56412V5.43512C0.714844 5.20305 0.807031 4.98049 0.971125 4.8164C1.13522 4.6523 1.35778 4.56012 1.58984 4.56012H10.4116C10.6436 4.56045 10.8659 4.65274 11.0299 4.81676C11.194 4.98079 11.2863 5.20315 11.2866 5.43512V6.56412C11.2866 6.79618 11.1944 7.01874 11.0303 7.18284C10.8662 7.34693 10.6437 7.43912 10.4116 7.43912ZM1.58984 5.31012C1.55669 5.31012 1.5249 5.32329 1.50146 5.34673C1.47801 5.37017 1.46484 5.40197 1.46484 5.43512V6.56412C1.46484 6.59727 1.47801 6.62906 1.50146 6.65251C1.5249 6.67595 1.55669 6.68912 1.58984 6.68912H10.4116C10.4447 6.68912 10.4765 6.67595 10.5 6.65251C10.5234 6.62906 10.5366 6.59727 10.5366 6.56412V5.43512C10.5366 5.40197 10.5234 5.37017 10.5 5.34673C10.4765 5.32329 10.4447 5.31012 10.4116 5.31012H1.58984Z" fill="black"/>
</svg>
